<svg width="14" height="16" viewBox="0 0 14 16" fill="none" xmlns="http://www.w3.org/2000/svg">
<mask id="path-1-inside-1_8_1560" fill="white">
<path d="M0.903255 7.526C0.778742 7.40148 0.708793 7.23259 0.708793 7.0565C0.708793 6.8804 0.778742 6.71152 0.903255 6.587L5.59725 1.896C6.02652 1.45571 6.53893 1.10503 7.10477 0.864307C7.67061 0.623585 8.27862 0.497609 8.89352 0.493686C9.50843 0.489763 10.118 0.607972 10.6869 0.841456C11.2557 1.07494 11.7726 1.41905 12.2074 1.85383C12.6423 2.28861 12.9865 2.8054 13.22 3.37423C13.4536 3.94306 13.5719 4.55261 13.5681 5.16752C13.5642 5.78242 13.4384 6.39045 13.1977 6.95633C12.9571 7.5222 12.6065 8.03467 12.1663 8.464L6.06626 14.564C5.44131 15.1734 4.60142 15.512 3.72857 15.5064C2.85572 15.5008 2.02024 15.1514 1.40316 14.5341C0.786086 13.9168 0.437126 13.0811 0.431902 12.2083C0.426678 11.3354 0.765611 10.4957 1.37525 9.871L6.53625 4.71C6.91118 4.34401 7.41527 4.14057 7.9392 4.14378C8.46314 4.14699 8.96469 4.35659 9.33511 4.72714C9.70553 5.09769 9.91495 5.59932 9.91797 6.12325C9.921 6.64719 9.71737 7.1512 9.35125 7.526L5.59725 11.279C5.47287 11.4034 5.30416 11.4733 5.12825 11.4733C4.95235 11.4733 4.78364 11.4034 4.65926 11.279C4.53487 11.1546 4.46499 10.9859 4.46499 10.81C4.46499 10.6341 4.53487 10.4654 4.65926 10.341L8.41225 6.587C8.47384 6.52541 8.5227 6.45229 8.55603 6.37182C8.58936 6.29135 8.60652 6.2051 8.60652 6.118C8.60652 6.0309 8.58936 5.94465 8.55603 5.86418C8.5227 5.78371 8.47384 5.71059 8.41225 5.649C8.35066 5.58741 8.27755 5.53855 8.19708 5.50522C8.1166 5.47189 8.03036 5.45473 7.94325 5.45473C7.85615 5.45473 7.76991 5.47189 7.68943 5.50522C7.60896 5.53855 7.53585 5.58741 7.47426 5.649L2.31325 10.81C1.93996 11.1833 1.73025 11.6896 1.73025 12.2175C1.73025 12.4789 1.78174 12.7377 1.88177 12.9792C1.9818 13.2207 2.12842 13.4402 2.31325 13.625C2.49809 13.8098 2.71752 13.9565 2.95902 14.0565C3.20052 14.1565 3.45936 14.208 3.72076 14.208C4.24867 14.208 4.75496 13.9983 5.12825 13.625L11.2283 7.525C11.5485 7.2197 11.8044 6.85343 11.981 6.44774C12.1576 6.04206 12.2513 5.60516 12.2565 5.16274C12.2617 4.72032 12.1784 4.28132 12.0115 3.87157C11.8445 3.46183 11.5973 3.08961 11.2844 2.77681C10.9715 2.46402 10.5992 2.21697 10.1893 2.05021C9.77953 1.88344 9.3405 1.80032 8.89808 1.80574C8.45566 1.81116 8.0188 1.90502 7.61319 2.08178C7.20758 2.25854 6.84142 2.51463 6.53625 2.835L1.84425 7.526C1.71977 7.65021 1.5511 7.71996 1.37525 7.71996C1.19941 7.71996 1.03074 7.65021 0.906255 7.526"/>
</mask>
<path d="M0.903255 7.526C0.778742 7.40148 0.708793 7.23259 0.708793 7.0565C0.708793 6.8804 0.778742 6.71152 0.903255 6.587L5.59725 1.896C6.02652 1.45571 6.53893 1.10503 7.10477 0.864307C7.67061 0.623585 8.27862 0.497609 8.89352 0.493686C9.50843 0.489763 10.118 0.607972 10.6869 0.841456C11.2557 1.07494 11.7726 1.41905 12.2074 1.85383C12.6423 2.28861 12.9865 2.8054 13.22 3.37423C13.4536 3.94306 13.5719 4.55261 13.5681 5.16752C13.5642 5.78242 13.4384 6.39045 13.1977 6.95633C12.9571 7.5222 12.6065 8.03467 12.1663 8.464L6.06626 14.564C5.44131 15.1734 4.60142 15.512 3.72857 15.5064C2.85572 15.5008 2.02024 15.1514 1.40316 14.5341C0.786086 13.9168 0.437126 13.0811 0.431902 12.2083C0.426678 11.3354 0.765611 10.4957 1.37525 9.871L6.53625 4.71C6.91118 4.34401 7.41527 4.14057 7.9392 4.14378C8.46314 4.14699 8.96469 4.35659 9.33511 4.72714C9.70553 5.09769 9.91495 5.59932 9.91797 6.12325C9.921 6.64719 9.71737 7.1512 9.35125 7.526L5.59725 11.279C5.47287 11.4034 5.30416 11.4733 5.12825 11.4733C4.95235 11.4733 4.78364 11.4034 4.65926 11.279C4.53487 11.1546 4.46499 10.9859 4.46499 10.81C4.46499 10.6341 4.53487 10.4654 4.65926 10.341L8.41225 6.587C8.47384 6.52541 8.5227 6.45229 8.55603 6.37182C8.58936 6.29135 8.60652 6.2051 8.60652 6.118C8.60652 6.0309 8.58936 5.94465 8.55603 5.86418C8.5227 5.78371 8.47384 5.71059 8.41225 5.649C8.35066 5.58741 8.27755 5.53855 8.19708 5.50522C8.1166 5.47189 8.03036 5.45473 7.94325 5.45473C7.85615 5.45473 7.76991 5.47189 7.68943 5.50522C7.60896 5.53855 7.53585 5.58741 7.47426 5.649L2.31325 10.81C1.93996 11.1833 1.73025 11.6896 1.73025 12.2175C1.73025 12.4789 1.78174 12.7377 1.88177 12.9792C1.9818 13.2207 2.12842 13.4402 2.31325 13.625C2.49809 13.8098 2.71752 13.9565 2.95902 14.0565C3.20052 14.1565 3.45936 14.208 3.72076 14.208C4.24867 14.208 4.75496 13.9983 5.12825 13.625L11.2283 7.525C11.5485 7.2197 11.8044 6.85343 11.981 6.44774C12.1576 6.04206 12.2513 5.60516 12.2565 5.16274C12.2617 4.72032 12.1784 4.28132 12.0115 3.87157C11.8445 3.46183 11.5973 3.08961 11.2844 2.77681C10.9715 2.46402 10.5992 2.21697 10.1893 2.05021C9.77953 1.88344 9.3405 1.80032 8.89808 1.80574C8.45566 1.81116 8.0188 1.90502 7.61319 2.08178C7.20758 2.25854 6.84142 2.51463 6.53625 2.835L1.84425 7.526C1.71977 7.65021 1.5511 7.71996 1.37525 7.71996C1.19941 7.71996 1.03074 7.65021 0.906255 7.526" fill="black" fill-opacity="0.45"/>
<path d="M0.708793 7.0565L-0.291207 7.0565L0.708793 7.0565ZM0.903255 6.587L0.196374 5.87967L0.19612 5.87992L0.903255 6.587ZM5.59725 1.896L6.3042 2.60339L6.31327 2.59408L5.59725 1.896ZM12.1663 8.464L11.468 7.74803L11.4591 7.75689L12.1663 8.464ZM6.06626 14.564L6.76445 15.28L6.77336 15.2711L6.06626 14.564ZM1.37525 9.871L0.668096 9.16384L0.659586 9.17256L1.37525 9.871ZM6.53625 4.71L5.83768 3.99436L5.82915 4.00289L6.53625 4.71ZM9.35125 7.526L10.0583 8.23325L10.0666 8.22477L9.35125 7.526ZM5.59725 11.279L4.89024 10.5718L4.89015 10.5719L5.59725 11.279ZM5.12825 11.4733L5.12825 10.4733L5.12825 11.4733ZM4.65926 10.341L5.36636 11.0481L5.36646 11.048L4.65926 10.341ZM8.41225 6.587L7.70515 5.87989L7.70505 5.87999L8.41225 6.587ZM1.73025 12.2175H0.730249H1.73025ZM5.12825 13.625L5.83536 14.3321L5.83536 14.3321L5.12825 13.625ZM11.2283 7.525L10.5382 6.80122L10.5296 6.80945L10.5211 6.81789L11.2283 7.525ZM6.53625 2.835L7.24329 3.54218L7.25191 3.53355L7.26033 3.52472L6.53625 2.835ZM1.84425 7.526L2.55058 8.23389L2.55129 8.23318L1.84425 7.526ZM1.37525 7.71996L1.37525 6.71996L1.37525 7.71996ZM1.61039 6.81892C1.6734 6.88193 1.70879 6.96739 1.70879 7.0565L-0.291207 7.0565C-0.291207 7.4978 -0.115912 7.92102 0.19612 8.23308L1.61039 6.81892ZM1.70879 7.0565C1.70879 7.14561 1.6734 7.23107 1.61039 7.29408L0.19612 5.87992C-0.115912 6.19198 -0.291207 6.6152 -0.291207 7.0565H1.70879ZM1.61014 7.29433L6.30414 2.60333L4.89037 1.18867L0.196374 5.87967L1.61014 7.29433ZM6.31327 2.59408C6.65012 2.24858 7.05222 1.9734 7.49624 1.7845L6.7133 -0.0558828C6.02564 0.236664 5.40291 0.662837 4.88124 1.19792L6.31327 2.59408ZM7.49624 1.7845C7.94027 1.5956 8.41738 1.49674 8.8999 1.49367L8.88714 -0.506294C8.13986 -0.501527 7.40096 -0.348429 6.7133 -0.0558828L7.49624 1.7845ZM8.8999 1.49367C9.38243 1.49059 9.86076 1.58335 10.3072 1.76657L11.0666 -0.0836542C10.3752 -0.367404 9.63443 -0.511061 8.88714 -0.506294L8.8999 1.49367ZM10.3072 1.76657C10.7536 1.94978 11.1591 2.21981 11.5004 2.56099L12.9145 1.14667C12.386 0.618289 11.7579 0.200095 11.0666 -0.0836542L10.3072 1.76657ZM11.5004 2.56099C11.8416 2.90217 12.1117 3.3077 12.295 3.75407L14.1451 2.99439C13.8612 2.3031 13.4429 1.67505 12.9145 1.14667L11.5004 2.56099ZM12.295 3.75407C12.4783 4.20044 12.5711 4.67876 12.5681 5.16129L14.568 5.17374C14.5727 4.42646 14.4289 3.68568 14.1451 2.99439L12.295 3.75407ZM12.5681 5.16129C12.5651 5.64381 12.4663 6.12094 12.2775 6.56499L14.118 7.34766C14.4104 6.65995 14.5634 5.92103 14.568 5.17374L12.5681 5.16129ZM12.2775 6.56499C12.0886 7.00905 11.8135 7.41119 11.4681 7.74809L12.8644 9.17991C13.3994 8.65815 13.8255 8.03536 14.118 7.34766L12.2775 6.56499ZM11.4591 7.75689L5.35915 13.8569L6.77336 15.2711L12.8734 9.17111L11.4591 7.75689ZM5.36812 13.848C4.93153 14.2738 4.34476 14.5103 3.73498 14.5064L3.72216 16.5063C4.85807 16.5136 5.9511 16.073 6.76439 15.28L5.36812 13.848ZM3.73498 14.5064C3.1252 14.5025 2.54152 14.2584 2.11042 13.8271L0.695905 15.2411C1.49896 16.0445 2.58625 16.4991 3.72216 16.5063L3.73498 14.5064ZM2.11042 13.8271C1.67932 13.3959 1.43553 12.8121 1.43188 12.2023L-0.56808 12.2143C-0.561282 13.3502 -0.10715 14.4377 0.695905 15.2411L2.11042 13.8271ZM1.43188 12.2023C1.42823 11.5925 1.66502 11.0059 2.09092 10.5694L0.659586 9.17256C-0.133795 9.98551 -0.574878 11.0784 -0.56808 12.2143L1.43188 12.2023ZM2.08236 10.5781L7.24336 5.41711L5.82915 4.00289L0.668148 9.16389L2.08236 10.5781ZM7.23477 5.42559C7.42139 5.24342 7.67229 5.14216 7.93308 5.14376L7.94533 3.1438C7.15824 3.13898 6.40098 3.4446 5.83774 3.99441L7.23477 5.42559ZM7.93308 5.14376C8.19386 5.14536 8.4435 5.24968 8.62787 5.43412L10.0423 4.02016C9.48587 3.4635 8.73241 3.14862 7.94533 3.1438L7.93308 5.14376ZM8.62787 5.43412C8.81225 5.61856 8.91649 5.86824 8.91799 6.12902L10.918 6.11748C10.9134 5.3304 10.5988 4.57682 10.0423 4.02016L8.62787 5.43412ZM8.91799 6.12902C8.9195 6.38981 8.81814 6.64067 8.63591 6.82723L10.0666 8.22477C10.6166 7.66173 10.9225 6.90457 10.918 6.11748L8.91799 6.12902ZM8.64424 6.8188L4.89024 10.5718L6.30427 11.9862L10.0583 8.2332L8.64424 6.8188ZM4.89015 10.5719C4.9533 10.5087 5.03895 10.4733 5.12825 10.4733L5.12825 12.4733C5.56938 12.4733 5.99244 12.298 6.30436 11.9861L4.89015 10.5719ZM5.12825 10.4733C5.21756 10.4733 5.30321 10.5087 5.36636 10.5719L3.95215 11.9861C4.26407 12.298 4.68713 12.4733 5.12825 12.4733L5.12825 10.4733ZM5.36636 10.5719C5.42951 10.635 5.46499 10.7207 5.46499 10.81L3.46499 10.81C3.46499 11.2511 3.64022 11.6742 3.95215 11.9861L5.36636 10.5719ZM5.46499 10.81C5.46499 10.8993 5.42951 10.985 5.36636 11.0481L3.95215 9.63389C3.64023 9.94582 3.46499 10.3689 3.46499 10.81L5.46499 10.81ZM5.36646 11.048L9.11946 7.29401L7.70505 5.87999L3.95205 9.63399L5.36646 11.048ZM9.11936 7.29411C9.27381 7.13965 9.39633 6.9563 9.47991 6.7545L7.63215 5.98914C7.64907 5.94829 7.67388 5.91116 7.70515 5.87989L9.11936 7.29411ZM9.47991 6.7545C9.5635 6.55271 9.60652 6.33643 9.60652 6.118H7.60652C7.60652 6.07378 7.61523 6.02999 7.63215 5.98914L9.47991 6.7545ZM9.60652 6.118C9.60652 5.89957 9.5635 5.68329 9.47991 5.48149L7.63215 6.24686C7.61523 6.20601 7.60652 6.16222 7.60652 6.118H9.60652ZM9.47991 5.48149C9.39633 5.2797 9.27381 5.09634 9.11936 4.94189L7.70515 6.35611C7.67388 6.32483 7.64907 6.28771 7.63215 6.24686L9.47991 5.48149ZM9.11936 4.94189C8.96491 4.78744 8.78156 4.66493 8.57976 4.58134L7.81439 6.4291C7.77354 6.41218 7.73642 6.38738 7.70515 6.35611L9.11936 4.94189ZM8.57976 4.58134C8.37796 4.49775 8.16168 4.45473 7.94325 4.45473V6.45473C7.89904 6.45473 7.85525 6.44602 7.81439 6.4291L8.57976 4.58134ZM7.94325 4.45473C7.72483 4.45473 7.50855 4.49775 7.30675 4.58134L8.07212 6.4291C8.03126 6.44602 7.98747 6.45473 7.94325 6.45473V4.45473ZM7.30675 4.58134C7.10495 4.66493 6.9216 4.78744 6.76715 4.94189L8.18136 6.35611C8.15009 6.38738 8.11297 6.41218 8.07212 6.4291L7.30675 4.58134ZM6.76715 4.94189L1.60615 10.1029L3.02036 11.5171L8.18136 6.35611L6.76715 4.94189ZM1.60615 10.1029C1.04532 10.6637 0.730249 11.4244 0.730249 12.2175H2.73025C2.73025 11.9548 2.83461 11.7029 3.02036 11.5171L1.60615 10.1029ZM0.730249 12.2175C0.730249 12.6102 0.807601 12.9991 0.957888 13.3619L2.80565 12.5966C2.75587 12.4764 2.73025 12.3476 2.73025 12.2175H0.730249ZM0.957888 13.3619C1.10818 13.7247 1.32845 14.0544 1.60615 14.3321L3.02036 12.9179C2.92838 12.8259 2.85542 12.7167 2.80565 12.5966L0.957888 13.3619ZM1.60615 14.3321C1.88384 14.6098 2.21351 14.8301 2.57634 14.9804L3.34171 13.1326C3.22153 13.0828 3.11234 13.0099 3.02036 12.9179L1.60615 14.3321ZM2.57634 14.9804C2.93916 15.1307 3.32803 15.208 3.72076 15.208V13.208C3.59068 13.208 3.46188 13.1824 3.34171 13.1326L2.57634 14.9804ZM3.72076 15.208C4.51389 15.208 5.27453 14.8929 5.83536 14.3321L4.42115 12.9179C4.23539 13.1036 3.98345 13.208 3.72076 13.208V15.208ZM5.83536 14.3321L11.9354 8.23211L10.5211 6.81789L4.42115 12.9179L5.83536 14.3321ZM11.9183 8.24878C12.335 7.85146 12.6681 7.37481 12.8979 6.84685L11.0641 6.04863C10.9408 6.33205 10.7619 6.58793 10.5382 6.80122L11.9183 8.24878ZM12.8979 6.84685C13.1277 6.3189 13.2496 5.75032 13.2564 5.17456L11.2566 5.15091C11.2529 5.45999 11.1875 5.76522 11.0641 6.04863L12.8979 6.84685ZM13.2564 5.17456C13.2632 4.5988 13.1548 4.0275 12.9376 3.49426L11.0854 4.24888C11.202 4.53514 11.2602 4.84183 11.2566 5.15091L13.2564 5.17456ZM12.9376 3.49426C12.7203 2.96102 12.3986 2.47662 11.9914 2.06956L10.5775 3.48407C10.7961 3.70259 10.9688 3.96263 11.0854 4.24888L12.9376 3.49426ZM11.9914 2.06956C11.5841 1.66249 11.0996 1.34099 10.5663 1.12396L9.81243 2.97645C10.0987 3.09296 10.3588 3.26555 10.5775 3.48407L11.9914 2.06956ZM10.5663 1.12396C10.0329 0.906931 9.46158 0.798763 8.88583 0.805818L8.91033 2.80567C9.21941 2.80188 9.52612 2.85995 9.81243 2.97645L10.5663 1.12396ZM8.88583 0.805818C8.31007 0.812874 7.74154 0.935011 7.21369 1.16504L8.01269 2.99851C8.29605 2.87502 8.60125 2.80946 8.91033 2.80567L8.88583 0.805818ZM7.21369 1.16504C6.68584 1.39508 6.20932 1.72836 5.81218 2.14528L7.26033 3.52472C7.47352 3.30091 7.72933 3.12199 8.01269 2.99851L7.21369 1.16504ZM5.82922 2.12782L1.13722 6.81882L2.55129 8.23318L7.24329 3.54218L5.82922 2.12782ZM1.13793 6.81811C1.20092 6.75526 1.28627 6.71996 1.37525 6.71996L1.37525 8.71996C1.81594 8.71996 2.23863 8.54515 2.55058 8.23389L1.13793 6.81811ZM1.37525 6.71996C1.46424 6.71996 1.54959 6.75526 1.61258 6.81811L0.19993 8.23389C0.511884 8.54515 0.934572 8.71996 1.37525 8.71996L1.37525 6.71996Z" fill="black" mask="url(#path-1-inside-1_8_1560)"/>
</svg>
